:version 1.10
:name ASF
:units
  mass 1
  length 1
  angle deg
:documentation
  ASF file generated by Kaydara
:root
  axis xyz
  order  tx ty tz rx ry rz
  position 0 0 0
  orientation 0 0 0
:bonedata
  begin
    id 1
    name lfemurDummy
    direction 0.61522 -0.761478 0.204097
    length 5.68318
    axis 0 -0 0 xyz
  end
  begin
    id 2
    name lfemur
    direction 0.34202 -0.939693 -5.84747e-008
    length 16.9147
    axis 0 -0 20 xyz
    dof rx ry rz
    limits( -inf , inf )
( -inf , inf )
( -inf , inf )

  end
  begin
    id 3
    name ltibia
    direction 0.34202 -0.939693 1.20839e-009
    length 18.0532
    axis 0 -0 20 xyz
    dof rz ry rx
    limits( -inf , inf )
( -inf , inf )
( -inf , inf )

  end
  begin
    id 4
    name lfoot
    direction 0.0841971 -0.23133 0.969225
    length 5.23822
    axis -90 7.62852e-016 20 xyz
    dof ry rx rz
    limits( -inf , inf )
( -inf , inf )
( -inf , inf )

  end
  begin
    id 5
    name ltoes
    direction 0 0 0
    length 0
    axis 0 0 0 xyz
    dof rz ry rx
    limits( -inf , inf )
( -inf , inf )
( -inf , inf )

  end
  begin
    id 6
    name rfemurDummy
    direction -0.625247 -0.75382 0.202044
    length 5.74091
    axis 0 -0 0 xyz
  end
  begin
    id 7
    name rfemur
    direction -0.34202 -0.939693 -1.47013e-008
    length 16.4922
    axis 0 -0 -20 xyz
    dof rx ry rz
    limits( -inf , inf )
( -inf , inf )
( -inf , inf )

  end
  begin
    id 8
    name rtibia
    direction -0.34202 -0.939693 -7.74345e-010
    length 18.2421
    axis 0 -0 -20 xyz
    dof rz ry rx
    limits( -inf , inf )
( -inf , inf )
( -inf , inf )

  end
  begin
    id 9
    name rfoot
    direction -0.124331 -0.341598 0.931586
    length 5.45787
    axis -90 -7.62852e-016 -20 xyz
    dof ry rx rz
    limits( -inf , inf )
( -inf , inf )
( -inf , inf )

  end
  begin
    id 10
    name rtoes
    direction 0 0 0
    length 0
    axis 0 0 0 xyz
    dof rz ry rx
    limits( -inf , inf )
( -inf , inf )
( -inf , inf )

  end
  begin
    id 11
    name lowerbackDummy
    direction 0 0 0
    length 0
    axis 0 -0 0 xyz
  end
  begin
    id 12
    name lowerback
    direction -0.0218484 0.994884 -0.0986304
    length 4.45607
    axis 0 -0 0 xyz
    dof rx ry rz
    limits( -inf , inf )
( -inf , inf )
( -inf , inf )

  end
  begin
    id 13
    name upperback
    direction -0.00973057 0.999717 -0.0217111
    length 4.47449
    axis 0 -0 0 xyz
    dof rx ry rz
    limits( -inf , inf )
( -inf , inf )
( -inf , inf )

  end
  begin
    id 14
    name thorax
    direction -0.000928171 0.999699 0.0245198
    length 4.50973
    axis 0 -0 0 xyz
    dof rx ry rz
    limits( -inf , inf )
( -inf , inf )
( -inf , inf )

  end
  begin
    id 15
    name rclavicle
    direction -0.9009 0.425937 -0.0834055
    length 7.28587
    axis 0 -0 0 xyz
    dof rx ry rz
    limits( -inf , inf )
( -inf , inf )
( -inf , inf )

  end
  begin
    id 16
    name rhumerus
    direction -1 -2.23604e-007 -1.42637e-007
    length 13.5704
    axis 180 30 90 xyz
    dof rx ry rz
    limits( -inf , inf )
( -inf , inf )
( -inf , inf )

  end
  begin
    id 17
    name rradius
    direction -1 5.68281e-008 -4.4952e-007
    length 8.06782
    axis 180 30 90 xyz
    dof rz ry rx
    limits( -inf , inf )
( -inf , inf )
( -inf , inf )

  end
  begin
    id 18
    name rwrist
    direction -1 1.51393e-007 1.38143e-007
    length 4.03391
    axis -90 -90 0 xyz
    dof rz rx ry
    limits( -inf , inf )
( -inf , inf )
( -inf , inf )

  end
  begin
    id 19
    name rthumb
    direction 0 0 0
    length 0
    axis 0 0 0 xyz
    dof ry rx rz
    limits( -inf , inf )
( -inf , inf )
( -inf , inf )

  end
  begin
    id 20
    name rhand
    direction -1 -3.34077e-007 -5.59631e-007
    length 1.29744
    axis -90 -90 0 xyz
    dof ry rx rz
    limits( -inf , inf )
( -inf , inf )
( -inf , inf )

  end
  begin
    id 21
    name rfingers
    direction 0 0 0
    length 0
    axis 0 0 0 xyz
    dof rz ry rx
    limits( -inf , inf )
( -inf , inf )
( -inf , inf )

  end
  begin
    id 22
    name lclavicle
    direction 0.940017 0.332249 -0.0773232
    length 8.29589
    axis 0 -0 0 xyz
    dof rx ry rz
    limits( -inf , inf )
( -inf , inf )
( -inf , inf )

  end
  begin
    id 23
    name lhumerus
    direction 1 7.41158e-008 -1.44768e-008
    length 12.0042
    axis 180 -30 -90 xyz
    dof rx ry rz
    limits( -inf , inf )
( -inf , inf )
( -inf , inf )

  end
  begin
    id 24
    name lradius
    direction 1 -1.32972e-007 3.10821e-007
    length 8.1902
    axis 180 -30 -90 xyz
    dof rz ry rx
    limits( -inf , inf )
( -inf , inf )
( -inf , inf )

  end
  begin
    id 25
    name lwrist
    direction 1 3.08957e-007 4.01394e-007
    length 4.09509
    axis -90 90 0 xyz
    dof rz rx ry
    limits( -inf , inf )
( -inf , inf )
( -inf , inf )

  end
  begin
    id 26
    name lthumb
    direction 0 0 0
    length 0
    axis 0 0 0 xyz
    dof ry rx rz
    limits( -inf , inf )
( -inf , inf )
( -inf , inf )

  end
  begin
    id 27
    name lhand
    direction 1 -1.64125e-007 -6.99514e-007
    length 1.37229
    axis -90 90 0 xyz
    dof ry rx rz
    limits( -inf , inf )
( -inf , inf )
( -inf , inf )

  end
  begin
    id 28
    name lfingers
    direction 0 0 0
    length 0
    axis 0 0 0 xyz
    dof rz ry rx
    limits( -inf , inf )
( -inf , inf )
( -inf , inf )

  end
  begin
    id 29
    name lowerneck
    direction -0.030798 0.998024 0.0547665
    length 3.93918
    axis 0 -0 0 xyz
    dof rx ry rz
    limits( -inf , inf )
( -inf , inf )
( -inf , inf )

  end
  begin
    id 30
    name upperneck
    direction 0.0531588 0.996611 -0.0627736
    length 3.95491
    axis 0 -0 0 xyz
    dof rx ry rz
    limits( -inf , inf )
( -inf , inf )
( -inf , inf )

  end
  begin
    id 31
    name head
    direction 0 0 0
    length 0
    axis 0 0 0 xyz
    dof rx ry rz
    limits( -inf , inf )
( -inf , inf )
( -inf , inf )

  end
:hierarchy
  begin
    root lfemurDummy rfemurDummy lowerbackDummy
    lfemurDummy lfemur
    lfemur ltibia
    ltibia lfoot
    lfoot ltoes
    rfemurDummy rfemur
    rfemur rtibia
    rtibia rfoot
    rfoot rtoes
    lowerbackDummy lowerback
    lowerback upperback
    upperback thorax
    thorax rclavicle lclavicle lowerneck
    rclavicle rhumerus
    rhumerus rradius
    rradius rwrist
    rwrist rthumb rhand
    rhand rfingers
    lclavicle lhumerus
    lhumerus lradius
    lradius lwrist
    lwrist lthumb lhand
    lhand lfingers
    lowerneck upperneck
    upperneck head
  end

:SAMPLES-PER-SECOND 30
:FULLY-SPECIFIED
:DEGREES
82
root  9.014911351 38.54822174 -1.408499996 -175.1719971 -67.34889984 169.7390137
lowerback  14.21179962 2.975769997 -0.3784379959
upperback  4.114580154 3.742539883 2.452719927
thorax  -3.800070047 1.743360043 2.143480062
lowerneck  -7.153240204 7.78497982 2.061729908
upperneck  17.19109917 9.827269554 1.629899979
head  6.422060013 4.921179771 0.9208499789
lclavicle  0 -9.442270133e-015 7.951389973e-016
lhumerus  -22.42869949 1.470780015 70.24230194
lradius  2.364248958e-031 -2.622817359e-031 132.0319977
lwrist  -7.062250077e-031 -0 17.14979935
lhand  -1.496451383e-031 -27.76390076 20.11240005
lfingers  90 7.125020027 -90
lthumb  89.89689403 5.08795885 91.16245106
rclavicle  0 -9.442270133e-015 7.951389973e-016
rhumerus  7.127570152 38.31290054 -78.91419983
rradius  -1.323868189e-031 3.273563358e-031 112.0189972
rwrist  7.062250077e-031 -1.765562519e-031 -8.284259796
rhand  -7.920061211e-032 -33.2840004 9.303460121
rfingers  -90 -7.125020027 -90
rthumb  -92.93752616 -24.25625642 -97.11982154
rfemur  -12.69939995 12.20619965 -5.51320982
rtibia  -0 0 54.57279968
rfoot  -8.930065147e-032 -8.678859711 -6.763629913
rtoes  5.373923086 19.29304026 -105.8922705
lfemur  -21.79319954 3.137439966 -6.505740166
ltibia  -0 0 50.02669907
lfoot  5.013038153e-032 -7.88477993 -0.4602969885
ltoes  -4.250644065 -19.5611806 -102.515957
83
root  8.898266469 38.6724457 -1.296195552 -174.5809937 -67.03109741 168.9769897
lowerback  14.14630032 3.016799927 -0.8273090124
upperback  4.148069859 3.728049994 2.286789894
thorax  -3.746259928 1.738720059 2.228060007
lowerneck  -7.496079922 7.829549789 2.020689964
upperneck  17.0109005 9.921199799 1.510370016
head  6.428050041 4.959410191 0.9083539844
lclavicle  0 -9.442270133e-015 7.951389973e-016
lhumerus  -20.87890053 1.302340031 69.29959869
lradius  2.383502332e-031 -2.605333121e-031 132.4539948
lwrist  -7.062250077e-031 1.765562519e-031 17.81990051
lhand  -1.496451383e-031 -27.76390076 20.11240005
lfingers  90 7.125020027 -90
lthumb  89.89689403 5.08795885 91.16245106
rclavicle  0 -9.442270133e-015 7.951389973e-016
rhumerus  7.848219872 38.20360184 -78.98560333
rradius  -1.391964617e-031 3.245193144e-031 113.2160034
rwrist  7.062250077e-031 -0 -8.176739693
rhand  -7.920061211e-032 -33.2840004 9.303460121
rfingers  -90 -7.125020027 -90
rthumb  -92.93752616 -24.25625642 -97.11982154
rfemur  -13.44390011 11.15750027 -5.843269825
rtibia  -0 0 55.41379929
rfoot  -0 -7.984940052 -7.668640137
rtoes  5.373923086 19.29304026 -105.8922705
lfemur  -22.04170036 4.410759926 -6.698150158
ltibia  -0 0 50.61920166
lfoot  4.437155165e-032 -5.867809772 -2.382090092
ltoes  -4.250644065 -19.5611806 -102.515957
84
root  8.776355353 38.79311028 -1.195244432 -174.4609985 -66.64389801 168.5339966
lowerback  14.16250038 3.117749929 -1.174530029
upperback  4.236289978 3.801949978 2.148600101
thorax  -3.678730011 1.773970008 2.267090082
lowerneck  -7.726150036 7.873950005 1.96401
upperneck  16.79770088 10.01879978 1.385710001
head  6.403530121 4.997980118 0.8909580112
lclavicle  0 -9.442270133e-015 7.951389973e-016
lhumerus  -19.37360001 1.178959966 68.44319916
lradius  2.400322325e-031 -2.589844932e-031 132.8249969
lwrist  -7.062250077e-031 8.827812596e-032 18.6984005
lhand  -1.496451383e-031 -27.76390076 20.11240005
lfingers  90 7.125020027 -90
lthumb  89.89689403 5.08795885 91.16245106
rclavicle  0 -9.442270133e-015 7.951389973e-016
rhumerus  8.499159813 37.93009949 -79.05940247
rradius  -1.459284831e-031 3.215483139e-031 114.4100037
rwrist  7.062250077e-031 -0 -8.092040062
rhand  -7.920061211e-032 -33.2840004 9.303460121
rfingers  -90 -7.125020027 -90
rthumb  -92.93752616 -24.25625642 -97.11982154
rfemur  -13.92879963 10.50039959 -5.876810074
rtibia  -0 0 56.21849823
rfoot  -0 -8.203949928 -7.990880013
rtoes  5.373923086 19.29304026 -105.8922705
lfemur  -22.01280022 5.636320114 -6.658810139
ltibia  -0 0 51.15940094
lfoot  4.422486205e-032 -3.569570065 -4.452690125
ltoes  -4.250644065 -19.5611806 -102.515957
85
root  8.665910856 38.89289015 -1.097648913 -174.6810303 -66.26100159 168.4650269
lowerback  14.21380043 3.242799997 -1.442399979
upperback  4.277860165 3.92392993 2.0880301
thorax  -3.682440042 1.833639979 2.331419945
lowerneck  -7.863339901 7.914830208 1.762500048
upperneck  16.64100075 10.11279964 1.366240025
head  6.367239952 5.033150196 0.9250760078
lclavicle  0 -9.442270133e-015 7.951389973e-016
lhumerus  -18.05139923 0.9475399852 67.92179871
lradius  2.416457514e-031 -2.57479652e-031 133.1829987
lwrist  -7.062250077e-031 8.827812596e-032 19.29179955
lhand  -1.496451383e-031 -27.76390076 20.11240005
lfingers  90 7.125020027 -90
lthumb  89.89689403 5.08795885 91.16245106
rclavicle  0 -9.442270133e-015 7.951389973e-016
rhumerus  9.065259933 37.65029907 -79.03220367
rradius  -1.525026119e-031 3.184829568e-031 115.586998
rwrist  7.062250077e-031 -1.765562519e-031 -8.310119629
rhand  -7.920061211e-032 -33.2840004 9.303460121
rfingers  -90 -7.125020027 -90
rthumb  -92.93752616 -24.25625642 -97.11982154
rfemur  -14.36859989 9.961979866 -5.63902998
rtibia  -0 0 57.02679825
rfoot  -0 -9.030989647 -7.932750225
rtoes  5.373923086 19.29304026 -105.8922705
lfemur  -22.06469917 6.850009918 -6.38876009
ltibia  -0 0 51.73550034
lfoot  8.829479227e-032 -1.113260031 -6.57641983
ltoes  -4.250644065 -19.5611806 -102.515957
